<?xml version="1.0" encoding="UTF-8"?>
<svg xmlns="http://www.w3.org/2000/svg" xmlns:xlink="http://www.w3.org/1999/xlink" width="131pt" height="30pt" viewBox="0 0 131 30" version="1.1">
<g id="surface1">
<path style=" stroke:none;fill-rule:evenodd;fill:rgb(97.254902%,97.254902%,97.254902%);fill-opacity:1;" d="M 116.179688 2.046875 C 114.789062 2.789062 112.878906 4.746094 112.878906 5.433594 C 112.878906 5.808594 113.257812 5.976562 113.644531 5.773438 C 114.078125 5.546875 114.078125 5.5625 113.539062 7.183594 C 113.300781 7.902344 112.929688 9.046875 112.714844 9.726562 C 112.5 10.40625 112.265625 11.132812 112.199219 11.347656 C 112.128906 11.558594 112.058594 11.796875 112.039062 11.875 C 112.011719 12.003906 111.914062 12.058594 111.226562 12.328125 C 110.175781 12.746094 110.066406 12.832031 109.957031 13.304688 C 109.929688 13.417969 109.957031 13.492188 110.085938 13.632812 L 110.25 13.820312 L 110.800781 13.804688 C 111.25 13.796875 111.351562 13.808594 111.351562 13.875 C 111.351562 13.960938 111.164062 14.585938 111.046875 14.890625 C 111.007812 14.996094 110.835938 15.527344 110.667969 16.070312 C 110.105469 17.882812 109.707031 19.144531 109.628906 19.367188 C 109.585938 19.488281 109.535156 19.6875 109.519531 19.8125 L 109.484375 20.035156 L 110.402344 20.125 C 110.910156 20.179688 111.421875 20.226562 111.539062 20.234375 L 111.757812 20.246094 L 111.773438 20 C 111.796875 19.59375 111.894531 19.003906 111.988281 18.679688 C 112.117188 18.246094 112.613281 16.769531 112.847656 16.125 C 113.300781 14.886719 113.519531 14.242188 113.585938 13.929688 C 113.722656 13.277344 113.773438 13.164062 113.945312 13.121094 C 115.535156 12.726562 116.011719 12.597656 116.574219 12.410156 C 117.792969 12.003906 118.183594 11.539062 117.714844 11.066406 C 117.46875 10.816406 116.875 10.863281 115.117188 11.257812 C 114.425781 11.414062 114.386719 11.730469 115.445312 8.625 C 116.085938 6.757812 116.1875 6.449219 116.289062 6.070312 C 116.332031 5.921875 116.492188 5.339844 116.644531 4.78125 C 116.800781 4.222656 116.945312 3.675781 116.96875 3.566406 C 116.988281 3.460938 117.027344 3.34375 117.046875 3.308594 C 117.121094 3.1875 117.246094 2.332031 117.210938 2.171875 C 117.125 1.742188 116.824219 1.707031 116.179688 2.046875 M 66.167969 3.492188 L 66.046875 3.578125 L 66.046875 15.757812 L 66.167969 15.789062 C 66.234375 15.808594 66.53125 15.839844 66.824219 15.859375 L 67.355469 15.894531 L 67.355469 15.488281 C 67.359375 11.257812 72.417969 9.035156 75.421875 11.941406 C 76.519531 13.003906 76.902344 13.960938 76.957031 15.769531 L 76.988281 16.839844 L 77.582031 16.914062 C 78.386719 17.011719 78.328125 17.085938 78.328125 16.046875 C 78.328125 13.621094 77.617188 12.023438 75.929688 10.652344 C 75.464844 10.273438 74.554688 9.769531 74.140625 9.660156 C 72.316406 9.175781 70.722656 9.300781 69.257812 10.035156 C 68.808594 10.257812 67.882812 10.960938 67.640625 11.261719 C 67.539062 11.382812 67.433594 11.484375 67.40625 11.484375 C 67.375 11.484375 67.355469 9.984375 67.355469 7.566406 L 67.355469 3.644531 L 67.230469 3.527344 C 67.070312 3.375 66.367188 3.351562 66.167969 3.492188 M 9.714844 4.78125 C 8.488281 5.007812 7.625 5.3125 6.664062 5.851562 C 5.65625 6.417969 4.570312 7.347656 3.921875 8.199219 C 3.609375 8.609375 3.054688 9.480469 3.054688 9.5625 C 3.054688 9.609375 3.339844 9.652344 3.988281 9.703125 L 4.457031 9.738281 L 4.777344 9.277344 C 7.863281 4.824219 14.65625 4.855469 17.644531 9.339844 C 18.109375 10.039062 18.320312 10.082031 18.921875 9.605469 C 19.613281 9.054688 17.03125 6.359375 14.957031 5.46875 C 14.09375 5.101562 13.542969 4.9375 12.617188 4.777344 C 11.816406 4.640625 10.472656 4.640625 9.714844 4.78125 M 120.269531 8.835938 C 119.378906 9.230469 118.300781 10.164062 118.246094 10.585938 C 118.183594 11.054688 118.617188 11.230469 119.171875 10.960938 C 120.21875 10.457031 121.230469 9.445312 121.230469 8.910156 C 121.230469 8.652344 120.761719 8.617188 120.269531 8.835938 M 23.484375 9.449219 C 23.3125 9.609375 23.300781 9.699219 23.320312 10.683594 L 23.335938 11.5625 L 23.5 11.601562 C 23.675781 11.644531 25.308594 11.808594 25.722656 11.824219 C 25.933594 11.832031 26.007812 11.808594 26.132812 11.691406 C 27.246094 10.640625 28.640625 10.390625 30.519531 10.910156 C 30.972656 11.035156 31.117188 10.984375 31.265625 10.648438 C 31.589844 9.917969 31.429688 9.746094 30.15625 9.472656 C 28.410156 9.089844 26.53125 9.609375 25.132812 10.851562 C 24.632812 11.296875 24.648438 11.3125 24.628906 10.378906 C 24.609375 9.398438 24.597656 9.378906 24 9.351562 C 23.660156 9.335938 23.589844 9.347656 23.484375 9.449219 M 39.109375 9.375 C 36.890625 9.738281 35.273438 10.675781 34.253906 12.1875 C 33.925781 12.675781 33.917969 12.667969 34.777344 12.71875 L 35.425781 12.757812 L 35.929688 12.253906 C 38.445312 9.722656 42.476562 10.191406 44.332031 13.226562 C 44.59375 13.65625 44.617188 13.675781 44.832031 13.707031 C 45.140625 13.746094 46.226562 13.847656 46.351562 13.847656 C 46.445312 13.847656 46.449219 13.742188 46.449219 11.707031 L 46.449219 9.566406 L 46.304688 9.453125 C 46.132812 9.316406 45.601562 9.296875 45.363281 9.421875 C 45.160156 9.527344 45.140625 9.644531 45.140625 10.855469 C 45.140625 11.410156 45.121094 11.875 45.097656 11.890625 C 45.070312 11.90625 44.851562 11.714844 44.613281 11.464844 C 43.359375 10.183594 41.6875 9.441406 39.898438 9.375 C 39.554688 9.359375 39.199219 9.359375 39.109375 9.375 M 49.695312 9.417969 C 49.59375 9.492188 49.589844 9.59375 49.574219 11.828125 L 49.558594 14.15625 L 50.203125 14.226562 C 50.554688 14.261719 50.902344 14.300781 50.972656 14.308594 C 51.082031 14.324219 51.125 14.265625 51.3125 13.851562 C 52.925781 10.332031 57.394531 9.507812 60.078125 12.238281 C 60.898438 13.070312 61.445312 14.097656 61.554688 15.007812 C 61.59375 15.359375 61.609375 15.367188 62.320312 15.414062 C 63.035156 15.460938 62.988281 15.511719 62.847656 14.800781 C 62.304688 12.042969 60.242188 9.988281 57.503906 9.46875 C 56.601562 9.300781 54.792969 9.386719 54.355469 9.621094 C 54.304688 9.648438 54.214844 9.671875 54.160156 9.671875 C 54.039062 9.671875 53.308594 9.980469 52.917969 10.199219 C 52.449219 10.460938 51.714844 11.03125 51.386719 11.386719 C 50.820312 12.007812 50.820312 12.003906 50.816406 10.597656 C 50.816406 9.304688 50.835938 9.339844 50.210938 9.339844 C 49.941406 9.339844 49.765625 9.367188 49.695312 9.417969 M 2.613281 10.535156 C 1.699219 12.960938 1.925781 16.085938 3.164062 18.105469 C 3.238281 18.226562 3.335938 18.390625 3.382812 18.476562 C 5.324219 21.976562 10.027344 23.683594 14.109375 22.367188 C 17.671875 21.21875 20.304688 17.65625 20.304688 13.980469 C 20.304688 13.027344 20.898438 13.132812 15.554688 13.132812 L 11.046875 13.132812 L 10.925781 13.257812 C 10.828125 13.363281 10.808594 13.453125 10.808594 13.773438 C 10.808594 14.425781 10.398438 14.367188 14.9375 14.382812 C 17.082031 14.386719 18.863281 14.410156 18.894531 14.429688 C 19.113281 14.5625 18.6875 16.210938 18.152344 17.3125 C 17.644531 18.359375 16.570312 19.589844 15.609375 20.230469 C 10.367188 23.726562 3.386719 20.015625 3.386719 13.738281 C 3.386719 12.6875 3.722656 10.984375 3.992188 10.691406 C 4.113281 10.554688 4.019531 10.507812 3.492188 10.445312 C 2.703125 10.355469 2.679688 10.359375 2.613281 10.535156 M 95.351562 11.0625 C 94.476562 11.378906 92.628906 13.265625 92.628906 13.847656 C 92.628906 14.144531 92.859375 14.199219 93.234375 13.988281 C 93.617188 13.769531 93.625 13.71875 93.039062 15.273438 C 92.894531 15.652344 92.746094 16.0625 92.707031 16.179688 C 92.667969 16.300781 92.472656 16.820312 92.277344 17.332031 C 92.082031 17.847656 91.9375 18.28125 91.960938 18.300781 C 92.015625 18.355469 93.902344 18.515625 93.949219 18.472656 C 93.980469 18.4375 94.277344 17.464844 94.464844 16.765625 C 94.65625 16.054688 96.867188 13.679688 97.335938 13.679688 C 97.535156 13.679688 97.480469 14.246094 97.160156 15.410156 C 96.894531 16.386719 96.664062 17.195312 96.585938 17.445312 C 96.421875 17.960938 96.230469 18.628906 96.230469 18.679688 C 96.230469 18.742188 96.335938 18.757812 97.476562 18.875 C 98.480469 18.976562 98.445312 18.988281 98.542969 18.566406 C 98.582031 18.402344 98.679688 18.101562 98.757812 17.898438 C 98.839844 17.695312 98.964844 17.371094 99.035156 17.183594 C 99.109375 16.996094 99.351562 16.371094 99.574219 15.796875 C 100.332031 13.835938 100.480469 13.015625 100.214844 12.21875 C 99.785156 10.941406 98.351562 11.070312 96.074219 12.59375 C 95.761719 12.800781 95.5 12.964844 95.488281 12.953125 C 95.480469 12.945312 95.554688 12.617188 95.660156 12.222656 C 95.875 11.390625 95.886719 11.246094 95.738281 11.097656 C 95.613281 10.972656 95.609375 10.972656 95.351562 11.0625 M 88.605469 11.183594 C 86.636719 11.71875 84.128906 14.179688 82.792969 16.890625 C 82.511719 17.457031 82.449219 17.394531 83.433594 17.488281 C 84.414062 17.582031 84.246094 17.683594 84.71875 16.714844 C 85.59375 14.921875 86.3125 13.898438 87.113281 13.285156 C 87.5625 12.941406 87.742188 12.9375 87.90625 13.269531 C 88.035156 13.535156 88.082031 14.207031 87.992188 14.511719 C 87.890625 14.855469 87.902344 15.523438 88.015625 15.691406 C 88.324219 16.167969 89.730469 15.289062 90.242188 14.300781 C 91.265625 12.332031 90.40625 10.695312 88.605469 11.183594 M 106.765625 11.230469 C 104.519531 11.902344 101.980469 14.710938 100.523438 18.136719 C 100.09375 19.144531 100.097656 19.105469 100.390625 19.140625 C 102.054688 19.339844 101.996094 19.34375 102.089844 19.023438 C 102.972656 16.101562 105.335938 12.582031 106.09375 13.066406 C 106.304688 13.199219 106.414062 14.148438 106.277344 14.613281 C 106.128906 15.105469 106.238281 15.742188 106.476562 15.804688 C 107.082031 15.957031 108.1875 15.085938 108.644531 14.101562 C 109.566406 12.109375 108.625 10.671875 106.765625 11.230469 M 126.828125 11.191406 C 125.332031 11.511719 123.421875 12.695312 122.289062 13.996094 C 120.8125 15.695312 119.703125 18.488281 119.703125 20.5 C 119.703125 20.769531 119.695312 20.777344 119.476562 20.875 L 119.25 20.976562 L 119.460938 21.011719 C 119.578125 21.027344 120.066406 21.082031 120.546875 21.128906 C 121.027344 21.171875 121.800781 21.25 122.265625 21.292969 C 122.730469 21.339844 123.503906 21.414062 123.984375 21.457031 C 124.464844 21.503906 125.074219 21.566406 125.335938 21.59375 L 125.8125 21.648438 L 126.4375 21.183594 C 128.253906 19.832031 128.46875 19.003906 126.699219 20.175781 C 123.832031 22.078125 122.457031 21.601562 122.457031 18.707031 C 122.460938 16.597656 123.53125 14.023438 124.6875 13.351562 L 124.894531 13.230469 L 125.035156 13.359375 C 125.109375 13.429688 125.28125 13.710938 125.414062 13.984375 C 125.785156 14.75 125.96875 14.816406 126.714844 14.4375 C 127.816406 13.878906 128.503906 13.050781 128.507812 12.28125 C 128.511719 11.332031 127.925781 10.953125 126.828125 11.191406 M 119.78125 11.578125 C 118.601562 12.25 117.59375 13.121094 116.980469 14.003906 C 116.65625 14.472656 116.648438 14.515625 116.839844 14.707031 C 117.03125 14.898438 117.273438 14.855469 117.65625 14.5625 C 118.117188 14.210938 118.117188 14.226562 117.648438 15.300781 C 117.15625 16.433594 117.054688 16.683594 116.773438 17.472656 C 116.238281 18.96875 115.738281 20.589844 115.792969 20.644531 C 115.804688 20.65625 116.195312 20.703125 116.652344 20.746094 C 117.113281 20.785156 117.578125 20.835938 117.683594 20.851562 L 117.878906 20.886719 L 117.886719 20.472656 C 117.902344 19.476562 118.484375 17.484375 119.21875 15.890625 C 119.332031 15.636719 119.429688 15.421875 119.429688 15.40625 C 119.429688 15.390625 119.515625 15.1875 119.625 14.957031 C 120.023438 14.109375 120.152344 13.8125 120.277344 13.460938 C 120.347656 13.265625 120.503906 12.835938 120.625 12.507812 C 120.914062 11.726562 120.910156 11.554688 120.589844 11.382812 C 120.398438 11.277344 120.242188 11.316406 119.78125 11.578125 M 23.34375 12.453125 C 23.324219 12.472656 23.308594 14.761719 23.308594 17.539062 L 23.308594 22.585938 L 23.445312 22.726562 C 23.574219 22.859375 23.617188 22.867188 23.988281 22.847656 C 24.683594 22.8125 24.617188 23.277344 24.621094 18.578125 C 24.621094 16.351562 24.644531 14.421875 24.671875 14.285156 C 24.765625 13.785156 24.847656 13.535156 25.058594 13.082031 C 25.175781 12.828125 25.265625 12.613281 25.253906 12.601562 C 25.195312 12.542969 23.394531 12.402344 23.34375 12.453125 M 33.535156 13.503906 C 33.519531 13.554688 33.472656 13.683594 33.433594 13.792969 C 32.566406 16.144531 33.140625 18.933594 34.871094 20.78125 C 37.421875 23.503906 41.894531 23.503906 44.640625 20.777344 C 44.859375 20.5625 45.058594 20.382812 45.085938 20.382812 C 45.113281 20.382812 45.140625 20.890625 45.152344 21.503906 C 45.171875 22.878906 45.160156 22.855469 45.792969 22.855469 C 46.078125 22.855469 46.246094 22.832031 46.328125 22.773438 L 46.449219 22.6875 L 46.449219 14.675781 L 46.21875 14.648438 C 44.804688 14.476562 44.90625 14.46875 44.972656 14.726562 C 45.765625 17.792969 43.699219 21.003906 40.605469 21.507812 C 36.578125 22.167969 33.339844 18.292969 34.613281 14.34375 C 34.707031 14.058594 34.816406 13.769531 34.859375 13.703125 C 34.964844 13.542969 34.9375 13.53125 34.28125 13.464844 C 33.5625 13.390625 33.570312 13.390625 33.535156 13.503906 M 49.5625 21.238281 C 49.5625 28.480469 49.484375 27.691406 50.207031 27.691406 C 50.878906 27.691406 50.816406 28.0625 50.816406 24.023438 C 50.816406 20.75 50.828125 20.382812 50.921875 20.382812 C 50.941406 20.382812 51.191406 20.613281 51.476562 20.894531 C 52.203125 21.609375 52.765625 21.980469 53.792969 22.414062 C 55.171875 23 57.269531 22.972656 58.839844 22.347656 C 61.128906 21.4375 62.933594 18.925781 62.933594 16.652344 L 62.933594 16.285156 L 62.351562 16.21875 C 61.652344 16.140625 61.707031 16.09375 61.597656 16.855469 C 60.882812 21.796875 54.75 23.296875 51.835938 19.246094 C 51.125 18.257812 50.722656 16.746094 50.867188 15.632812 C 50.902344 15.367188 50.917969 15.136719 50.898438 15.121094 C 50.859375 15.082031 50.191406 15.007812 49.820312 15.003906 L 49.5625 15 L 49.5625 21.238281 M 88.914062 15.929688 C 88.320312 16.113281 87.359375 16.929688 86.957031 17.597656 C 86.804688 17.847656 86.769531 17.832031 87.714844 17.914062 C 88.121094 17.945312 88.617188 17.992188 88.816406 18.015625 L 89.183594 18.054688 L 89.238281 17.804688 C 89.605469 16.183594 89.527344 15.742188 88.914062 15.929688 M 107.257812 15.917969 C 106.296875 16.273438 105.554688 17.015625 104.824219 18.351562 C 104.652344 18.667969 104.425781 19.050781 104.328125 19.203125 L 104.144531 19.476562 L 104.292969 19.515625 C 104.378906 19.535156 104.984375 19.605469 105.644531 19.667969 C 106.304688 19.726562 106.96875 19.792969 107.121094 19.8125 L 107.394531 19.847656 L 107.398438 19.195312 C 107.402344 18.726562 107.441406 18.332031 107.550781 17.773438 C 107.894531 16.015625 107.84375 15.699219 107.257812 15.917969 M 66.046875 19.582031 L 66.046875 22.578125 L 66.164062 22.691406 C 66.28125 22.796875 66.535156 22.835938 67 22.816406 C 67.367188 22.800781 67.359375 22.894531 67.34375 19.652344 L 67.328125 16.738281 L 67.191406 16.703125 C 67.117188 16.683594 66.828125 16.648438 66.550781 16.628906 L 66.046875 16.589844 L 66.046875 19.582031 M 76.960938 20.125 C 76.960938 23.015625 76.917969 22.8125 77.574219 22.847656 C 77.945312 22.867188 77.996094 22.855469 78.140625 22.730469 L 78.300781 22.59375 L 78.316406 20.234375 C 78.335938 17.492188 78.417969 17.769531 77.574219 17.714844 L 76.960938 17.675781 L 76.960938 20.125 M 82.0625 18.503906 C 81.847656 18.980469 81.234375 20.855469 81.140625 21.308594 C 80.566406 24.058594 82.988281 24.113281 85.980469 21.417969 C 86.390625 21.046875 86.40625 21.039062 86.457031 21.164062 C 86.667969 21.695312 86.84375 22.167969 86.84375 22.222656 C 86.84375 22.378906 87.25 22.90625 87.464844 23.03125 C 88.082031 23.382812 88.859375 23.097656 89.90625 22.128906 C 90.273438 21.789062 90.554688 21.558594 90.53125 21.621094 C 90.378906 21.984375 90.105469 22.929688 90.078125 23.171875 L 90.046875 23.460938 L 90.371094 23.460938 C 91.167969 23.460938 92.394531 22.261719 93.132812 20.757812 C 93.273438 20.46875 93.390625 20.199219 93.390625 20.167969 C 93.390625 20.132812 93.453125 19.960938 93.527344 19.78125 C 93.605469 19.601562 93.664062 19.417969 93.664062 19.375 C 93.664062 19.28125 92.882812 19.175781 92.085938 19.160156 L 91.574219 19.148438 L 91.316406 19.800781 C 90.984375 20.632812 90.644531 20.910156 89.816406 21.023438 C 89.410156 21.082031 89.144531 20.5 89.09375 19.453125 C 89.0625 18.835938 89.035156 18.792969 88.703125 18.792969 C 88.566406 18.792969 88.121094 18.753906 87.714844 18.710938 C 87.308594 18.664062 86.851562 18.617188 86.691406 18.597656 L 86.40625 18.570312 L 86.203125 18.910156 C 85.925781 19.363281 84.761719 20.898438 84.449219 21.222656 C 83.734375 21.964844 83.1875 20.964844 83.585938 19.644531 C 83.640625 19.460938 83.753906 19.101562 83.839844 18.847656 C 84.027344 18.285156 84.097656 18.347656 83.226562 18.261719 C 82.128906 18.15625 82.222656 18.136719 82.0625 18.503906 M 95.984375 19.5625 C 95.902344 19.691406 95.390625 21.726562 95.328125 22.15625 C 95.097656 23.757812 96.753906 23.808594 98.949219 22.265625 C 99.351562 21.984375 99.328125 21.976562 99.402344 22.410156 C 99.699219 24.09375 101.917969 23.617188 104.351562 21.347656 C 104.539062 21.171875 104.699219 21.039062 104.710938 21.050781 C 104.71875 21.0625 104.820312 21.320312 104.933594 21.621094 C 105.457031 22.980469 105.753906 23.265625 106.53125 23.136719 C 107.160156 23.035156 107.523438 22.796875 108.4375 21.898438 C 108.824219 21.519531 109.144531 21.210938 109.152344 21.210938 C 109.160156 21.210938 109.167969 21.453125 109.167969 21.75 C 109.167969 23.957031 110.824219 23.898438 113.640625 21.582031 C 113.746094 21.496094 113.867188 21.394531 113.910156 21.359375 C 114.019531 21.273438 113.050781 21.140625 112.527344 21.171875 C 112.289062 21.1875 112.066406 21.167969 111.9375 21.121094 C 111.824219 21.082031 111.308594 21.011719 110.789062 20.964844 C 110.273438 20.917969 109.621094 20.851562 109.339844 20.820312 C 109.027344 20.785156 108.808594 20.78125 108.769531 20.8125 C 108.664062 20.894531 108.179688 21.042969 108.015625 21.042969 C 107.875 21.042969 107.683594 20.875 107.625 20.703125 C 107.613281 20.671875 107.261719 20.613281 106.816406 20.570312 C 106.382812 20.53125 105.648438 20.460938 105.183594 20.414062 C 104.71875 20.367188 104.152344 20.316406 103.925781 20.296875 L 103.515625 20.265625 L 103.308594 20.5625 C 102.433594 21.816406 101.742188 21.789062 101.742188 20.5 L 101.742188 20.074219 L 100.964844 20 C 99.757812 19.886719 99.890625 19.851562 99.722656 20.324219 C 99.351562 21.386719 98.039062 21.269531 98.175781 20.183594 C 98.238281 19.6875 98.328125 19.742188 97.285156 19.644531 C 96.808594 19.597656 96.332031 19.546875 96.222656 19.53125 C 96.097656 19.511719 96.007812 19.523438 95.984375 19.5625 M 115.082031 19.765625 C 114.691406 19.976562 114.027344 20.40625 114.023438 20.445312 C 114.023438 20.484375 114.453125 20.550781 114.71875 20.550781 C 114.875 20.550781 114.96875 20.492188 115.257812 20.210938 C 115.804688 19.679688 115.707031 19.429688 115.082031 19.765625 M 115.554688 21.558594 C 114.832031 23.472656 116.09375 23.925781 118.367188 22.566406 C 119.058594 22.152344 119.5 21.863281 119.476562 21.84375 C 119.449219 21.820312 117.644531 21.625 115.863281 21.457031 C 115.628906 21.4375 115.597656 21.445312 115.554688 21.558594 M 119.835938 22.039062 C 120.195312 23.785156 121.960938 23.972656 124.488281 22.53125 C 124.851562 22.324219 124.933594 22.34375 123.113281 22.167969 C 121.3125 21.992188 120.535156 21.917969 120.171875 21.886719 L 119.796875 21.851562 L 119.835938 22.039062 "/>
<path style=" stroke:none;fill-rule:evenodd;fill:rgb(1.568627%,1.568627%,1.568627%);fill-opacity:1;" d="M 0 14.945312 L 0 29.890625 L 131 29.890625 L 131 0 L 0 0 L 0 14.945312 M 117.09375 1.910156 C 117.253906 2.09375 117.222656 3.019531 117.046875 3.308594 C 117.027344 3.34375 116.988281 3.460938 116.96875 3.566406 C 116.945312 3.675781 116.800781 4.222656 116.644531 4.78125 C 116.492188 5.339844 116.332031 5.921875 116.289062 6.070312 C 116.1875 6.449219 116.085938 6.757812 115.445312 8.625 C 114.386719 11.730469 114.425781 11.414062 115.117188 11.257812 C 116.875 10.863281 117.46875 10.816406 117.714844 11.066406 C 118.183594 11.539062 117.792969 12.003906 116.574219 12.410156 C 116.011719 12.597656 115.535156 12.726562 113.945312 13.121094 C 113.773438 13.164062 113.722656 13.277344 113.585938 13.929688 C 113.519531 14.242188 113.300781 14.886719 112.847656 16.125 C 112.613281 16.769531 112.117188 18.246094 111.988281 18.679688 C 111.894531 19.003906 111.796875 19.59375 111.773438 20 L 111.757812 20.246094 L 111.539062 20.234375 C 111.421875 20.226562 110.910156 20.179688 110.402344 20.125 L 109.484375 20.035156 L 109.519531 19.8125 C 109.535156 19.6875 109.585938 19.488281 109.628906 19.367188 C 109.707031 19.144531 110.105469 17.882812 110.667969 16.070312 C 110.835938 15.527344 111.007812 14.996094 111.046875 14.890625 C 111.164062 14.585938 111.351562 13.960938 111.351562 13.875 C 111.351562 13.808594 111.25 13.796875 110.800781 13.804688 L 110.25 13.820312 L 110.085938 13.632812 C 109.957031 13.492188 109.929688 13.417969 109.957031 13.304688 C 110.066406 12.832031 110.175781 12.746094 111.226562 12.328125 C 111.914062 12.058594 112.011719 12.003906 112.039062 11.875 C 112.058594 11.796875 112.128906 11.558594 112.199219 11.347656 C 112.265625 11.132812 112.5 10.40625 112.714844 9.726562 C 112.929688 9.046875 113.300781 7.902344 113.539062 7.183594 C 114.078125 5.5625 114.078125 5.546875 113.644531 5.773438 C 113.054688 6.082031 112.695312 5.632812 113.027344 5.007812 C 113.816406 3.527344 116.632812 1.382812 117.09375 1.910156 M 67.230469 3.527344 L 67.355469 3.644531 L 67.355469 7.566406 C 67.355469 9.984375 67.375 11.484375 67.40625 11.484375 C 67.433594 11.484375 67.539062 11.382812 67.640625 11.261719 C 67.882812 10.960938 68.808594 10.257812 69.257812 10.035156 C 70.722656 9.300781 72.316406 9.175781 74.140625 9.660156 C 74.554688 9.769531 75.464844 10.273438 75.929688 10.652344 C 77.617188 12.023438 78.328125 13.621094 78.328125 16.046875 C 78.328125 17.085938 78.386719 17.011719 77.582031 16.914062 L 76.988281 16.839844 L 76.957031 15.769531 C 76.902344 13.960938 76.519531 13.003906 75.421875 11.941406 C 72.417969 9.035156 67.359375 11.257812 67.355469 15.488281 L 67.355469 15.894531 L 66.824219 15.859375 C 66.53125 15.839844 66.234375 15.808594 66.167969 15.789062 L 66.046875 15.757812 L 66.046875 3.578125 L 66.167969 3.492188 C 66.367188 3.351562 67.070312 3.375 67.230469 3.527344 M 12.617188 4.777344 C 13.542969 4.9375 14.09375 5.101562 14.957031 5.46875 C 17.03125 6.359375 19.613281 9.054688 18.921875 9.605469 C 18.320312 10.082031 18.109375 10.039062 17.644531 9.339844 C 14.65625 4.855469 7.863281 4.824219 4.777344 9.277344 L 4.457031 9.738281 L 3.988281 9.703125 C 3.339844 9.652344 3.054688 9.609375 3.054688 9.5625 C 3.054688 9.480469 3.609375 8.609375 3.921875 8.199219 C 4.570312 7.347656 5.65625 6.417969 6.664062 5.851562 C 8.457031 4.84375 10.679688 4.441406 12.617188 4.777344 M 121.144531 8.769531 C 121.507812 9.132812 120.398438 10.367188 119.171875 10.960938 C 118.617188 11.230469 118.183594 11.054688 118.246094 10.585938 C 118.34375 9.824219 120.714844 8.335938 121.144531 8.769531 M 24.5 9.472656 C 24.605469 9.566406 24.617188 9.648438 24.628906 10.378906 C 24.648438 11.3125 24.632812 11.296875 25.132812 10.851562 C 26.53125 9.609375 28.410156 9.089844 30.15625 9.472656 C 31.429688 9.746094 31.589844 9.917969 31.265625 10.648438 C 31.117188 10.984375 30.972656 11.035156 30.519531 10.910156 C 28.640625 10.390625 27.246094 10.640625 26.132812 11.691406 C 26.007812 11.808594 25.933594 11.832031 25.722656 11.824219 C 25.308594 11.808594 23.675781 11.644531 23.5 11.601562 L 23.335938 11.5625 L 23.320312 10.683594 C 23.300781 9.699219 23.3125 9.609375 23.484375 9.449219 C 23.648438 9.292969 24.324219 9.308594 24.5 9.472656 M 40.882812 9.472656 C 42.40625 9.796875 43.605469 10.4375 44.613281 11.464844 C 44.851562 11.714844 45.070312 11.90625 45.097656 11.890625 C 45.121094 11.875 45.140625 11.410156 45.140625 10.855469 C 45.140625 9.644531 45.160156 9.527344 45.363281 9.421875 C 45.601562 9.296875 46.132812 9.316406 46.304688 9.453125 L 46.449219 9.566406 L 46.449219 11.707031 C 46.449219 13.742188 46.445312 13.847656 46.351562 13.847656 C 46.226562 13.847656 45.140625 13.746094 44.832031 13.707031 C 44.617188 13.675781 44.59375 13.65625 44.332031 13.226562 C 42.476562 10.191406 38.445312 9.722656 35.929688 12.253906 L 35.425781 12.757812 L 34.777344 12.71875 C 33.917969 12.667969 33.925781 12.675781 34.253906 12.1875 C 35.273438 10.675781 36.890625 9.738281 39.109375 9.375 C 39.382812 9.332031 40.503906 9.394531 40.882812 9.472656 M 50.71875 9.429688 C 50.808594 9.511719 50.816406 9.625 50.816406 10.597656 C 50.820312 12.003906 50.820312 12.007812 51.386719 11.386719 C 51.714844 11.03125 52.449219 10.460938 52.917969 10.199219 C 53.308594 9.980469 54.039062 9.671875 54.160156 9.671875 C 54.214844 9.671875 54.304688 9.648438 54.355469 9.621094 C 54.792969 9.386719 56.601562 9.300781 57.503906 9.46875 C 60.242188 9.988281 62.304688 12.042969 62.847656 14.800781 C 62.988281 15.511719 63.035156 15.460938 62.320312 15.414062 C 61.609375 15.367188 61.59375 15.359375 61.554688 15.007812 C 61.445312 14.097656 60.898438 13.070312 60.078125 12.238281 C 57.394531 9.507812 52.925781 10.332031 51.3125 13.851562 C 51.125 14.265625 51.082031 14.324219 50.972656 14.308594 C 50.902344 14.300781 50.554688 14.261719 50.203125 14.226562 L 49.558594 14.15625 L 49.574219 11.828125 C 49.589844 9.117188 49.535156 9.339844 50.210938 9.339844 C 50.511719 9.339844 50.644531 9.363281 50.71875 9.429688 M 3.492188 10.445312 C 4.019531 10.507812 4.113281 10.554688 3.992188 10.691406 C 3.722656 10.984375 3.386719 12.6875 3.386719 13.738281 C 3.386719 21.683594 13.792969 24.53125 17.941406 17.71875 C 18.128906 17.410156 18.472656 16.640625 18.613281 16.207031 C 18.847656 15.503906 19.007812 14.5 18.894531 14.429688 C 18.863281 14.410156 17.082031 14.386719 14.9375 14.382812 C 10.398438 14.367188 10.808594 14.425781 10.808594 13.773438 C 10.808594 13.453125 10.828125 13.363281 10.925781 13.257812 L 11.046875 13.132812 L 15.554688 13.132812 C 20.898438 13.132812 20.304688 13.027344 20.304688 13.980469 C 20.304688 18.414062 16.8125 22.207031 12.199219 22.777344 C 8.773438 23.199219 4.976562 21.347656 3.382812 18.476562 C 3.335938 18.390625 3.238281 18.226562 3.164062 18.105469 C 1.925781 16.085938 1.699219 12.960938 2.613281 10.535156 C 2.679688 10.359375 2.703125 10.355469 3.492188 10.445312 M 95.738281 11.097656 C 95.886719 11.246094 95.875 11.390625 95.660156 12.222656 C 95.554688 12.617188 95.480469 12.945312 95.488281 12.953125 C 95.5 12.964844 95.761719 12.800781 96.074219 12.59375 C 98.351562 11.070312 99.785156 10.941406 100.214844 12.21875 C 100.480469 13.015625 100.332031 13.835938 99.574219 15.796875 C 99.351562 16.371094 99.109375 16.996094 99.035156 17.183594 C 98.964844 17.371094 98.839844 17.695312 98.757812 17.898438 C 98.679688 18.101562 98.582031 18.402344 98.542969 18.566406 C 98.445312 18.988281 98.480469 18.976562 97.476562 18.875 C 96.335938 18.757812 96.230469 18.742188 96.230469 18.679688 C 96.230469 18.628906 96.421875 17.960938 96.585938 17.445312 C 96.664062 17.195312 96.894531 16.386719 97.160156 15.410156 C 97.480469 14.246094 97.535156 13.679688 97.335938 13.679688 C 96.867188 13.679688 94.65625 16.054688 94.464844 16.765625 C 94.277344 17.464844 93.980469 18.4375 93.949219 18.472656 C 93.902344 18.515625 92.015625 18.355469 91.960938 18.300781 C 91.9375 18.28125 92.082031 17.847656 92.277344 17.332031 C 92.472656 16.820312 92.667969 16.300781 92.707031 16.179688 C 92.746094 16.0625 92.894531 15.652344 93.039062 15.273438 C 93.625 13.71875 93.617188 13.769531 93.234375 13.988281 C 92.859375 14.199219 92.628906 14.144531 92.628906 13.847656 C 92.628906 13.265625 94.476562 11.378906 95.351562 11.0625 C 95.609375 10.972656 95.613281 10.972656 95.738281 11.097656 M 89.871094 11.203125 C 91.515625 11.964844 90.363281 15.535156 88.386719 15.800781 C 87.945312 15.859375 87.765625 15.273438 87.992188 14.511719 C 88.082031 14.207031 88.035156 13.535156 87.90625 13.269531 C 87.742188 12.9375 87.5625 12.941406 87.113281 13.285156 C 86.3125 13.898438 85.59375 14.921875 84.71875 16.714844 C 84.246094 17.683594 84.414062 17.582031 83.433594 17.488281 C 82.449219 17.394531 82.511719 17.457031 82.792969 16.890625 C 84.523438 13.375 88.199219 10.425781 89.871094 11.203125 M 108.15625 11.203125 C 109.5 11.816406 109.148438 14.335938 107.570312 15.402344 C 106.507812 16.125 105.929688 15.773438 106.277344 14.613281 C 106.414062 14.148438 106.304688 13.199219 106.09375 13.066406 C 105.335938 12.582031 102.972656 16.101562 102.089844 19.023438 C 101.996094 19.34375 102.054688 19.339844 100.390625 19.140625 C 100.097656 19.105469 100.09375 19.144531 100.523438 18.136719 C 102.355469 13.832031 106.226562 10.316406 108.15625 11.203125 M 127.8125 11.179688 C 129.183594 11.589844 128.53125 13.515625 126.714844 14.4375 C 125.96875 14.816406 125.785156 14.75 125.414062 13.984375 C 125.28125 13.710938 125.109375 13.429688 125.035156 13.359375 L 124.894531 13.230469 L 124.6875 13.351562 C 123.53125 14.023438 122.460938 16.597656 122.457031 18.707031 C 122.457031 21.601562 123.832031 22.078125 126.699219 20.175781 C 128.46875 19.003906 128.253906 19.832031 126.4375 21.183594 L 125.8125 21.648438 L 125.335938 21.59375 C 125.074219 21.566406 124.464844 21.503906 123.984375 21.457031 C 123.503906 21.414062 122.730469 21.339844 122.265625 21.292969 C 121.800781 21.25 121.027344 21.171875 120.546875 21.128906 C 120.066406 21.082031 119.578125 21.027344 119.460938 21.011719 L 119.25 20.976562 L 119.476562 20.875 C 119.695312 20.777344 119.703125 20.769531 119.703125 20.5 C 119.703125 18.488281 120.8125 15.695312 122.289062 13.996094 C 123.796875 12.261719 126.617188 10.824219 127.8125 11.179688 M 120.589844 11.382812 C 120.910156 11.554688 120.914062 11.726562 120.625 12.507812 C 120.503906 12.835938 120.347656 13.265625 120.277344 13.460938 C 120.152344 13.8125 120.023438 14.109375 119.625 14.957031 C 119.515625 15.1875 119.429688 15.390625 119.429688 15.40625 C 119.429688 15.421875 119.332031 15.636719 119.21875 15.890625 C 118.484375 17.484375 117.902344 19.476562 117.886719 20.472656 L 117.878906 20.886719 L 117.683594 20.851562 C 117.578125 20.835938 117.113281 20.785156 116.652344 20.746094 C 116.195312 20.703125 115.804688 20.65625 115.792969 20.644531 C 115.738281 20.589844 116.238281 18.96875 116.773438 17.472656 C 117.054688 16.683594 117.15625 16.433594 117.648438 15.300781 C 118.117188 14.226562 118.117188 14.210938 117.65625 14.5625 C 117.203125 14.910156 116.699219 14.871094 116.699219 14.488281 C 116.699219 13.699219 120 11.066406 120.589844 11.382812 M 24.394531 12.5 C 25.402344 12.597656 25.316406 12.523438 25.058594 13.082031 C 24.847656 13.535156 24.765625 13.785156 24.671875 14.285156 C 24.644531 14.421875 24.621094 16.351562 24.621094 18.578125 C 24.617188 23.277344 24.683594 22.8125 23.988281 22.847656 C 23.617188 22.867188 23.574219 22.859375 23.445312 22.726562 L 23.308594 22.585938 L 23.308594 17.539062 C 23.308594 14.761719 23.324219 12.472656 23.34375 12.453125 C 23.390625 12.40625 23.425781 12.40625 24.394531 12.5 M 34.28125 13.464844 C 34.9375 13.53125 34.964844 13.542969 34.859375 13.703125 C 34.816406 13.769531 34.707031 14.058594 34.613281 14.34375 C 33.339844 18.292969 36.578125 22.167969 40.605469 21.507812 C 43.699219 21.003906 45.765625 17.792969 44.972656 14.726562 C 44.90625 14.46875 44.804688 14.476562 46.21875 14.648438 L 46.449219 14.675781 L 46.449219 22.6875 L 46.328125 22.773438 C 46.246094 22.832031 46.078125 22.855469 45.792969 22.855469 C 45.160156 22.855469 45.171875 22.878906 45.152344 21.503906 C 45.140625 20.890625 45.113281 20.382812 45.085938 20.382812 C 45.058594 20.382812 44.859375 20.5625 44.640625 20.777344 C 40.007812 25.378906 32.273438 21.6875 33.101562 15.273438 C 33.1875 14.621094 33.277344 14.21875 33.433594 13.792969 C 33.472656 13.683594 33.519531 13.554688 33.535156 13.503906 C 33.570312 13.390625 33.5625 13.390625 34.28125 13.464844 M 50.472656 15.046875 C 50.964844 15.097656 50.945312 15.0625 50.867188 15.632812 C 50.722656 16.746094 51.125 18.257812 51.835938 19.246094 C 54.75 23.296875 60.882812 21.796875 61.597656 16.855469 C 61.707031 16.09375 61.652344 16.140625 62.351562 16.21875 L 62.933594 16.285156 L 62.933594 16.652344 C 62.933594 18.925781 61.128906 21.4375 58.839844 22.347656 C 57.269531 22.972656 55.171875 23 53.792969 22.414062 C 52.765625 21.980469 52.203125 21.609375 51.476562 20.894531 C 51.191406 20.613281 50.941406 20.382812 50.921875 20.382812 C 50.828125 20.382812 50.816406 20.75 50.816406 24.023438 C 50.816406 28.0625 50.878906 27.691406 50.207031 27.691406 C 49.484375 27.691406 49.5625 28.480469 49.5625 21.238281 L 49.5625 15 L 49.820312 15.003906 C 49.964844 15.003906 50.257812 15.023438 50.472656 15.046875 M 89.40625 15.984375 C 89.507812 16.175781 89.441406 16.914062 89.238281 17.804688 L 89.183594 18.054688 L 88.816406 18.015625 C 88.617188 17.992188 88.121094 17.945312 87.714844 17.914062 C 86.769531 17.832031 86.804688 17.847656 86.957031 17.597656 C 87.570312 16.582031 89.164062 15.53125 89.40625 15.984375 M 107.679688 15.949219 C 107.835938 16.148438 107.816406 16.410156 107.550781 17.773438 C 107.441406 18.332031 107.402344 18.726562 107.398438 19.195312 L 107.394531 19.847656 L 107.121094 19.8125 C 106.96875 19.792969 106.304688 19.726562 105.644531 19.667969 C 104.984375 19.605469 104.378906 19.535156 104.292969 19.515625 L 104.144531 19.476562 L 104.328125 19.203125 C 104.425781 19.050781 104.652344 18.667969 104.824219 18.351562 C 105.554688 17.015625 106.296875 16.273438 107.257812 15.917969 C 107.40625 15.863281 107.625 15.878906 107.679688 15.949219 M 67.191406 16.703125 L 67.328125 16.738281 L 67.34375 19.652344 C 67.359375 22.894531 67.367188 22.800781 67 22.816406 C 66.535156 22.835938 66.28125 22.796875 66.164062 22.691406 L 66.046875 22.578125 L 66.046875 16.589844 L 66.550781 16.628906 C 66.828125 16.648438 67.117188 16.683594 67.191406 16.703125 M 78.261719 17.816406 C 78.316406 17.863281 78.328125 18.332031 78.316406 20.234375 L 78.300781 22.59375 L 78.140625 22.730469 C 77.996094 22.855469 77.945312 22.867188 77.574219 22.847656 C 76.917969 22.8125 76.960938 23.015625 76.960938 20.125 L 76.960938 17.675781 L 77.574219 17.714844 C 77.914062 17.738281 78.222656 17.78125 78.261719 17.816406 M 83.226562 18.261719 C 84.097656 18.347656 84.027344 18.285156 83.839844 18.847656 C 83.753906 19.101562 83.640625 19.460938 83.585938 19.644531 C 83.1875 20.964844 83.734375 21.964844 84.449219 21.222656 C 84.761719 20.898438 85.925781 19.363281 86.203125 18.910156 L 86.40625 18.570312 L 86.691406 18.597656 C 86.851562 18.617188 87.308594 18.664062 87.714844 18.710938 C 88.121094 18.753906 88.566406 18.792969 88.703125 18.792969 C 89.035156 18.792969 89.0625 18.835938 89.09375 19.453125 C 89.144531 20.5 89.410156 21.082031 89.816406 21.023438 C 90.644531 20.910156 90.984375 20.632812 91.316406 19.800781 L 91.574219 19.148438 L 92.085938 19.160156 C 92.882812 19.175781 93.664062 19.28125 93.664062 19.375 C 93.664062 19.417969 93.605469 19.601562 93.527344 19.78125 C 93.453125 19.960938 93.390625 20.132812 93.390625 20.167969 C 93.390625 20.199219 93.273438 20.46875 93.132812 20.757812 C 92.394531 22.261719 91.167969 23.460938 90.371094 23.460938 L 90.046875 23.460938 L 90.078125 23.171875 C 90.105469 22.929688 90.378906 21.984375 90.53125 21.621094 C 90.554688 21.558594 90.273438 21.789062 89.90625 22.128906 C 88.859375 23.097656 88.082031 23.382812 87.464844 23.03125 C 87.25 22.90625 86.84375 22.378906 86.84375 22.222656 C 86.84375 22.167969 86.667969 21.695312 86.457031 21.164062 C 86.40625 21.039062 86.390625 21.046875 85.980469 21.417969 C 82.988281 24.113281 80.566406 24.058594 81.140625 21.308594 C 81.234375 20.855469 81.847656 18.980469 82.0625 18.503906 C 82.222656 18.136719 82.128906 18.15625 83.226562 18.261719 M 97.285156 19.644531 C 98.328125 19.742188 98.238281 19.6875 98.175781 20.183594 C 98.039062 21.269531 99.351562 21.386719 99.722656 20.324219 C 99.890625 19.851562 99.757812 19.886719 100.964844 20 L 101.742188 20.074219 L 101.742188 20.5 C 101.742188 21.789062 102.433594 21.816406 103.308594 20.5625 L 103.515625 20.265625 L 103.925781 20.296875 C 104.152344 20.316406 104.71875 20.367188 105.183594 20.414062 C 105.648438 20.460938 106.382812 20.53125 106.816406 20.570312 C 107.261719 20.613281 107.613281 20.671875 107.625 20.703125 C 107.683594 20.875 107.875 21.042969 108.015625 21.042969 C 108.179688 21.042969 108.664062 20.894531 108.769531 20.8125 C 108.808594 20.78125 109.027344 20.785156 109.339844 20.820312 C 109.621094 20.851562 110.273438 20.917969 110.789062 20.964844 C 111.308594 21.011719 111.824219 21.082031 111.9375 21.121094 C 112.066406 21.167969 112.289062 21.1875 112.527344 21.171875 C 113.050781 21.140625 114.019531 21.273438 113.910156 21.359375 C 113.867188 21.394531 113.746094 21.496094 113.640625 21.582031 C 110.824219 23.898438 109.167969 23.957031 109.167969 21.75 C 109.167969 21.453125 109.160156 21.210938 109.152344 21.210938 C 109.144531 21.210938 108.824219 21.519531 108.4375 21.898438 C 107.523438 22.796875 107.160156 23.035156 106.53125 23.136719 C 105.753906 23.265625 105.457031 22.980469 104.933594 21.621094 C 104.820312 21.320312 104.71875 21.0625 104.710938 21.050781 C 104.699219 21.039062 104.539062 21.171875 104.351562 21.347656 C 101.917969 23.617188 99.699219 24.09375 99.402344 22.410156 C 99.328125 21.976562 99.351562 21.984375 98.949219 22.265625 C 96.753906 23.808594 95.097656 23.757812 95.328125 22.15625 C 95.390625 21.726562 95.902344 19.691406 95.984375 19.5625 C 96.007812 19.523438 96.097656 19.511719 96.222656 19.53125 C 96.332031 19.546875 96.808594 19.597656 97.285156 19.644531 M 115.609375 19.742188 C 115.609375 19.957031 114.957031 20.550781 114.71875 20.550781 C 114.453125 20.550781 114.023438 20.484375 114.023438 20.445312 C 114.023438 20.425781 114.199219 20.300781 114.414062 20.164062 C 115.296875 19.601562 115.609375 19.492188 115.609375 19.742188 M 116.945312 21.5625 C 118.417969 21.710938 119.457031 21.824219 119.476562 21.84375 C 119.5 21.863281 119.058594 22.152344 118.367188 22.566406 C 116.09375 23.925781 114.832031 23.472656 115.554688 21.558594 C 115.597656 21.445312 115.628906 21.4375 115.863281 21.457031 C 116.007812 21.472656 116.496094 21.519531 116.945312 21.5625 M 121.394531 22 C 124.777344 22.328125 124.667969 22.316406 124.695312 22.363281 C 124.726562 22.410156 124.386719 22.601562 123.6875 22.929688 C 121.535156 23.929688 120.160156 23.613281 119.835938 22.039062 L 119.796875 21.851562 L 120.171875 21.886719 C 120.378906 21.90625 120.929688 21.957031 121.394531 22 "/>
</g>
</svg>
